<mxfile host="Electron" modified="2023-11-15T19:13:12.310Z" agent="Mozilla/5.0 (Macintosh; Intel Mac OS X 10_15_7) AppleWebKit/537.36 (KHTML, like Gecko) draw.io/22.0.3 Chrome/114.0.5735.289 Electron/25.8.4 Safari/537.36" etag="7uJDwHRHbqkuAPDkv5_U" version="22.0.3" type="device">
  <diagram name="Page-1" id="6SvJwemD8tZK3GVmS24l">
    <mxGraphModel dx="422" dy="598" grid="1" gridSize="10" guides="1" tooltips="1" connect="1" arrows="1" fold="1" page="1" pageScale="1" pageWidth="827" pageHeight="1169" math="0" shadow="0">
      <root>
        <mxCell id="0" />
        <mxCell id="1" parent="0" />
        <mxCell id="Htb9QaKrJhQpz-hRMJVH-1" value="" style="ellipse;html=1;shape=startState;fillColor=#000000;strokeColor=#ff0000;" vertex="1" parent="1">
          <mxGeometry x="210" y="30" width="30" height="30" as="geometry" />
        </mxCell>
        <mxCell id="Htb9QaKrJhQpz-hRMJVH-2" value="" style="edgeStyle=orthogonalEdgeStyle;html=1;verticalAlign=bottom;endArrow=open;endSize=8;strokeColor=#ff0000;rounded=0;" edge="1" source="Htb9QaKrJhQpz-hRMJVH-1" parent="1">
          <mxGeometry relative="1" as="geometry">
            <mxPoint x="225" y="120" as="targetPoint" />
          </mxGeometry>
        </mxCell>
        <mxCell id="Htb9QaKrJhQpz-hRMJVH-3" value="Lire nombre1" style="rounded=1;whiteSpace=wrap;html=1;arcSize=40;fontColor=#000000;fillColor=#ffffc0;strokeColor=#ff0000;" vertex="1" parent="1">
          <mxGeometry x="165" y="120" width="120" height="40" as="geometry" />
        </mxCell>
        <mxCell id="Htb9QaKrJhQpz-hRMJVH-4" value="" style="edgeStyle=orthogonalEdgeStyle;html=1;verticalAlign=bottom;endArrow=open;endSize=8;strokeColor=#ff0000;rounded=0;" edge="1" source="Htb9QaKrJhQpz-hRMJVH-3" parent="1">
          <mxGeometry relative="1" as="geometry">
            <mxPoint x="225" y="220" as="targetPoint" />
          </mxGeometry>
        </mxCell>
        <mxCell id="Htb9QaKrJhQpz-hRMJVH-5" value="Lire nombre2" style="rounded=1;whiteSpace=wrap;html=1;arcSize=40;fontColor=#000000;fillColor=#ffffc0;strokeColor=#ff0000;" vertex="1" parent="1">
          <mxGeometry x="165" y="220" width="120" height="40" as="geometry" />
        </mxCell>
        <mxCell id="Htb9QaKrJhQpz-hRMJVH-6" value="" style="edgeStyle=orthogonalEdgeStyle;html=1;verticalAlign=bottom;endArrow=open;endSize=8;strokeColor=#ff0000;rounded=0;" edge="1" source="Htb9QaKrJhQpz-hRMJVH-5" parent="1">
          <mxGeometry relative="1" as="geometry">
            <mxPoint x="225" y="320" as="targetPoint" />
          </mxGeometry>
        </mxCell>
        <mxCell id="Htb9QaKrJhQpz-hRMJVH-7" value="moyenne &amp;lt;-- (nombre1 + nombre2)/2" style="rounded=1;whiteSpace=wrap;html=1;arcSize=40;fontColor=#000000;fillColor=#ffffc0;strokeColor=#ff0000;" vertex="1" parent="1">
          <mxGeometry x="165" y="320" width="120" height="40" as="geometry" />
        </mxCell>
        <mxCell id="Htb9QaKrJhQpz-hRMJVH-8" value="" style="edgeStyle=orthogonalEdgeStyle;html=1;verticalAlign=bottom;endArrow=open;endSize=8;strokeColor=#ff0000;rounded=0;" edge="1" source="Htb9QaKrJhQpz-hRMJVH-7" parent="1">
          <mxGeometry relative="1" as="geometry">
            <mxPoint x="225" y="420" as="targetPoint" />
          </mxGeometry>
        </mxCell>
        <mxCell id="Htb9QaKrJhQpz-hRMJVH-9" value="Afficher moyenne" style="rounded=1;whiteSpace=wrap;html=1;arcSize=40;fontColor=#000000;fillColor=#ffffc0;strokeColor=#ff0000;" vertex="1" parent="1">
          <mxGeometry x="165" y="420" width="120" height="40" as="geometry" />
        </mxCell>
        <mxCell id="Htb9QaKrJhQpz-hRMJVH-10" value="" style="edgeStyle=orthogonalEdgeStyle;html=1;verticalAlign=bottom;endArrow=open;endSize=8;strokeColor=#ff0000;rounded=0;" edge="1" source="Htb9QaKrJhQpz-hRMJVH-9" parent="1">
          <mxGeometry relative="1" as="geometry">
            <mxPoint x="225" y="520" as="targetPoint" />
          </mxGeometry>
        </mxCell>
        <mxCell id="Htb9QaKrJhQpz-hRMJVH-11" value="" style="ellipse;html=1;shape=endState;fillColor=#000000;strokeColor=#ff0000;" vertex="1" parent="1">
          <mxGeometry x="210" y="520" width="30" height="30" as="geometry" />
        </mxCell>
      </root>
    </mxGraphModel>
  </diagram>
</mxfile>
